# xmcd
#
# Track frame offsets: 
#        150
#        18422
#        42860
#        65650
#        87390
#        109212
#        127760
#        152310
#        175320
#        201097
#        227640
#        246712
#        268847
#
# Disc length: 3888 seconds
#
# Revision: 7
# Processed by: cddbd v1.5.2PL0 Copyright (c) Steve Scherf et al.
# Submitted via: ExactAudioCopyFreeDBPlugin 1.0
#
DISCID=b00f2e0d
DTITLE=Bernard Allison - Times Are Changing
DYEAR=1998
DGENRE=Blues
TTITLE0=I Can't Get You Out Of My Mind
TTITLE1=Bad Love
TTITLE2=Check Yourself
TTITLE3=Midnight Creeper
TTITLE4=Don't Be Confused (Acoustic)
TTITLE5=Tell Me
TTITLE6=The Way Love Was Meant To Be
TTITLE7=In The Morning
TTITLE8=New Girl In Town
TTITLE9=If You Want Me To Stay
TTITLE10=Life Is A Bitch
TTITLE11=Real Mother 'Fa 'Ya
TTITLE12=Don't Be Confused
EXTD=Ruf Records 1998 YEAR: 1998
EXTT0=
EXTT1=
EXTT2=
EXTT3=
EXTT4=
EXTT5=
EXTT6=
EXTT7=
EXTT8=
EXTT9=
EXTT10=
EXTT11=
EXTT12=
PLAYORDER=
